<?xml version="1.0" encoding="utf-8"?>
<!-- Generator: Adobe Illustrator 25.2.1, SVG Export Plug-In . SVG Version: 6.00 Build 0)  -->
<svg version="1.1" xmlns="http://www.w3.org/2000/svg" xmlns:xlink="http://www.w3.org/1999/xlink" x="0px" y="0px"
	 viewBox="0 0 458.2 458.2" style="enable-background:new 0 0 458.2 458.2;" xml:space="preserve">
<style type="text/css">
	.st0{display:none;}
	.st1{display:inline;fill:#F70000;stroke:#FFFFFF;stroke-miterlimit:10;}
	.st2{fill:#FFFFFF;}
</style>
<g id="Layer_2" class="st0">
	<rect x="-16" y="-22" class="st1" width="500" height="494"/>
</g>
<g id="Capa_1">
	<g>
		<path class="st2" d="M406,81.3c-15-17.8-32.7-33.3-52.6-45.9C316.8,12.3,274.4,0,230.9,0c-61.2,0-118.7,23.8-162,67.1
			S1.8,167.9,1.8,229.1s23.8,118.7,67.1,162s100.8,67.1,162,67.1c47,0,92.2-14.1,130.7-40.9c37.6-26.1,66.2-62.4,82.8-104.9
			l-52.1-20.4c-26.1,66.9-89.5,110.2-161.4,110.2c-95.5,0-173.2-77.7-173.2-173.2S135.4,55.9,230.9,55.9c48.3,0,93,19.6,125.1,53.3
			l-60.9,34l79.4,47.3l79.4,47.3l1.3-92.4l1.3-92.4L406,81.3z"/>
	</g>
</g>
</svg>
